<svg width="32" height="32" viewBox="0 0 32 32" fill="none" xmlns="http://www.w3.org/2000/svg">
<path d="M1.23438 0.902406C4.9555 7.92053 10.1413 13.5493 15.7519 19.1973L15.9785 19.4317L15.9824 19.4278C17.3466 20.7984 18.7349 22.173 20.1327 23.5684C18.9542 24.4942 17.6969 25.3309 16.3866 26.0879L18.1699 27.871L22.4647 23.5762C25.1107 25.3035 27.2326 27.5541 28.9706 30.1893L30.7246 28.4356C28.0702 26.7173 25.7408 24.6727 24.0977 21.9433L28.4062 17.6347L26.6231 15.8516C25.9284 17.2174 25.0972 18.4775 24.1562 19.6387C21.4154 16.9012 18.7523 14.2735 16.0234 11.7968C16.0094 11.7841 15.9964 11.7704 15.9824 11.7577C11.4765 7.67191 6.78219 3.99447 1.23438 0.902406ZM30.7266 0.902406C25.5367 3.79491 21.0939 7.20116 16.8534 10.9747L18.2793 12.3223L21.8299 8.77153L22.6562 9.59572L19.1288 13.1232L20.6659 14.5723C24.5286 10.3898 28.0159 6.01491 30.7266 0.902406ZM10.1309 8.77153L22.6659 21.3047C22.3934 21.5823 22.1134 21.8542 21.8281 22.1192L9.30469 9.59566L10.1309 8.77153ZM5.33781 15.8515L3.55656 17.6348L7.86325 21.9414C6.22012 24.671 3.89263 26.7173 1.23825 28.4356L2.99219 30.1893C4.73012 27.5541 6.85206 25.3035 9.49806 23.5762L13.7929 27.871L15.5761 26.0879C14.2659 25.3308 13.0086 24.4942 11.83 23.5683C12.9466 22.454 14.0556 21.3538 15.1523 20.2577L13.5996 18.6543L10.1327 22.121C9.84744 21.8561 9.56938 21.5822 9.29688 21.3046L12.7871 17.8143L11.254 16.2285C10.1115 17.3445 8.96637 18.4822 7.80662 19.6406C6.86487 18.4789 6.03281 17.2182 5.33781 15.8515Z" fill="#E61720" fill-opacity="0.75"/>
</svg>
