<svg width="32" height="29" viewBox="0 0 32 29" fill="none" xmlns="http://www.w3.org/2000/svg">
<path d="M7.33731 1.0083L1.40605 6.46279C2.41855 7.55029 4.1373 8.47354 5.54355 8.73975C6.4998 8.90967 7.45605 8.8417 8.2498 8.47354C10.0811 10.1104 11.8873 11.7757 13.6873 13.4522L15.0748 12.1892L9.5998 7.23311C9.99355 6.51943 10.1311 5.65 9.88105 4.80889C9.36855 3.08135 8.55606 2.11393 7.33731 1.0083ZM15.1561 1.54639C14.5748 1.55205 13.9998 1.59736 13.4373 1.69932C20.7561 5.69248 26.2248 11.028 30.5373 17.2019C30.7123 13.8487 29.2123 10.3937 26.8311 7.58994C25.8936 7.90146 24.7373 7.62393 23.9311 6.89893C23.1311 6.16826 22.8248 5.12041 23.1686 4.2708C20.7123 2.57725 17.8998 1.53506 15.1561 1.54639ZM8.0248 3.40986C8.38105 3.94795 8.61855 4.49736 8.73105 5.01279C8.9373 5.94736 8.74355 6.71768 8.19355 7.21611C7.6498 7.70889 6.7998 7.88447 5.76855 7.70322C5.1998 7.60127 4.59355 7.38603 3.99355 7.06318L8.0248 3.40986ZM24.4936 4.31045C24.0436 4.7092 24.0811 5.53389 24.7623 6.14561C25.4373 6.76299 26.3436 6.79131 26.7936 6.38916C27.2373 5.98135 27.2248 5.14307 26.5248 4.54834C25.9811 4.08785 25.0811 3.78539 24.4936 4.31045ZM20.9748 8.34326L1.39355 26.0944C1.65605 26.7458 2.0623 27.2499 2.9248 27.5048L22.5186 9.74228C22.0498 9.24951 21.5311 8.78506 20.9748 8.34326ZM18.2748 15.0892L16.8311 16.3976C18.8623 18.3233 20.8936 20.2661 22.9186 22.2032C21.9436 23.0245 20.9373 23.7438 20.0123 24.248C23.5061 27.4198 27.8186 28.6716 30.1373 27.3349C31.5623 25.2222 30.2061 21.3026 26.7311 18.1534C26.1311 19.003 25.3561 19.8923 24.5123 20.7419L18.2748 15.0892Z" fill="#E61720" fill-opacity="0.75"/>
</svg>
