<svg width="32" height="29" viewBox="0 0 32 29" fill="none" xmlns="http://www.w3.org/2000/svg">
<path d="M15.857 1.1531C15.3076 1.15735 14.7665 1.19954 14.2388 1.28382C11.3295 1.74873 8.64989 2.76537 6.66227 4.23282C4.67458 5.70026 3.37652 7.59671 3.14252 9.89988L3.14227 9.90215L3.14202 9.90441C2.61389 14.6557 5.60433 18.5347 7.24227 20.1877C7.56789 20.5164 7.68377 20.9565 7.65058 21.3693C7.61745 21.7821 7.46058 22.1903 7.2382 22.6062C6.79358 23.4382 6.06927 24.3089 5.29883 25.1243C4.42652 26.0477 3.58789 26.8067 2.93945 27.3688C3.38964 27.3001 3.8622 27.1213 4.35633 26.8382C5.27258 26.3134 6.20345 25.4519 6.98739 24.4991C7.77133 23.5461 8.41283 22.5008 8.78752 21.6338C8.97489 21.2003 9.09452 20.8103 9.13839 20.5169C9.18214 20.2236 9.12733 20.0417 9.11627 20.0248C8.15752 18.5675 7.1627 17.078 6.57333 15.5439C5.98395 14.0098 5.81083 12.3967 6.56877 10.8229C8.1452 7.54964 11.445 6.00363 14.742 5.74762C18.0301 5.49228 21.3647 6.44973 23.2761 8.28002L24.7318 9.55296L29.0602 7.20407C27.789 5.71363 25.5921 4.07015 23.0452 2.88483C20.9486 1.90914 18.6263 1.2435 16.409 1.16137C16.2241 1.15457 16.0401 1.15174 15.857 1.15321V1.1531ZM23.2761 8.28002L23.2725 8.27673L23.2918 8.29446C23.2866 8.28953 23.2812 8.28483 23.2762 8.27996L23.2761 8.28002ZM15.3007 6.73741C15.1465 6.74319 14.9923 6.75129 14.8382 6.7633C14.6156 6.78057 14.3938 6.80464 14.1732 6.83438L14.775 9.38757C15.135 9.29485 15.5035 9.22767 15.8778 9.1857L15.3008 6.73735L15.3007 6.73741ZM18.0413 6.9446C17.7372 7.67215 17.5832 8.4125 17.6052 9.15585C17.9823 9.18304 18.3606 9.23147 18.7377 9.30068C18.6835 8.61023 18.8193 7.91695 19.1353 7.20611C18.7816 7.10303 18.4156 7.01563 18.0413 6.9446ZM11.3743 7.61239C10.9923 7.7839 10.6243 7.98282 10.2736 8.20893C11.3705 8.71088 12.1298 9.49824 12.4433 10.4516C12.7518 10.2341 13.0773 10.0447 13.416 9.88159C13.0334 8.96078 12.3174 8.1775 11.3743 7.61239ZM16.8828 10.1497C16.8106 10.1496 16.7386 10.1505 16.6668 10.1523C16.4996 10.1566 16.3338 10.166 16.1698 10.1808C13.5452 10.4173 11.3379 11.8946 10.7026 15.2824C10.5652 16.0153 10.9709 17.7078 11.468 19.1147C11.965 20.5214 12.5076 21.6928 12.5076 21.6928L12.5391 21.7607L12.548 21.834C12.6705 22.8365 11.9786 23.8146 11.2223 24.794C10.72 25.4446 10.1954 26.046 9.72414 26.5907C11.2241 26.5142 12.5968 25.9118 13.9227 24.8378C13.915 24.8095 13.9121 24.7976 13.9031 24.7644C13.849 24.5608 13.781 24.2718 13.7977 23.9329C13.8256 23.3674 14.1523 22.6892 14.9738 22.1279C13.4378 20.1443 13.1677 17.667 13.4701 15.6127L13.5255 15.236L13.9396 15.1765C17.6093 14.6503 20.0175 13.5447 22.6483 12.0843C20.9255 10.845 18.8235 10.152 16.8827 10.1496L16.8828 10.1497ZM24.3951 12.2929C21.3686 14.0215 18.6726 15.4461 14.5479 16.1077C14.3446 17.9999 14.6996 20.1768 16.1245 21.817C16.9125 21.8515 17.5785 22.2121 17.9935 22.7336C18.4152 23.2634 18.6151 23.9323 18.6704 24.6383C20.1259 25.8519 22.606 26.8487 24.7806 27.8473C24.5825 25.6132 24.7621 23.5234 23.872 21.3841L19.9444 19.951L19.9405 19.9495C19.046 19.6087 18.4823 19.1683 18.2835 18.5884C18.0848 18.0087 18.2289 17.4576 18.3578 16.829L18.4953 16.1577L19.1665 16.4678C20.6295 17.1441 22.3786 17.6301 24.0133 17.6043L24.4246 17.5977L24.5561 17.9511C25.2181 19.7316 25.3631 21.1576 25.5406 22.6071L26.0273 22.7834C26.2851 21.1193 26.1468 18.893 25.7859 16.8687C25.4445 14.9533 24.8659 13.1854 24.3951 12.2928V12.2929ZM13.9621 24.9869C13.9615 25.0121 13.968 25.0127 13.9628 24.9892C13.9626 24.9887 13.9621 24.9873 13.9621 24.9869Z" fill="#E61720" fill-opacity="0.75"/>
</svg>
