<svg width="32" height="29" viewBox="0 0 32 29" fill="none" xmlns="http://www.w3.org/2000/svg">
<path d="M30.5 19.7551H26.11L25.1663 24.7078L22.1175 19.7551H10.5625V16.9231H22.4375V8.03052H30.5V19.7551ZM21.4375 4.29224V16.0168H9.88313L6.83375 20.9712L5.88938 16.0168H1.5V4.29224H21.4375ZM8.54525 12.1961C8.54525 11.6218 7.77919 11.3344 7.33119 11.7404C6.88319 12.1464 7.20038 12.8407 7.83406 12.8407C8.22688 12.8407 8.54531 12.5521 8.54531 12.1961H8.54525ZM12.3543 12.1961C12.3501 11.6229 11.5843 11.3396 11.1386 11.7462C10.6929 12.1529 11.0106 12.845 11.6431 12.845C12.0377 12.845 12.3569 12.5538 12.3543 12.1961ZM16.1634 12.1961C16.1634 11.6218 15.3973 11.3344 14.9493 11.7404C14.5012 12.1464 14.8185 12.8407 15.4522 12.8407C15.8449 12.8407 16.1634 12.5521 16.1634 12.1961Z" fill="#E61720" fill-opacity="0.75"/>
</svg>
