<svg width="21" height="22" viewBox="0 0 21 22" fill="none" xmlns="http://www.w3.org/2000/svg">
<path d="M10.9725 4.86775H7.02748C6.15362 4.86775 5.38334 4.44069 4.92942 3.79149L2.53125 3.79167C2.10409 3.79167 1.75107 4.09733 1.6952 4.49392L1.6875 4.60417V19.2341C1.6875 19.6455 2.00492 19.9854 2.41676 20.0392L2.64574 20.0541C3.05758 20.1079 3.375 20.4478 3.375 20.8591C3.375 21.3079 2.99724 21.6716 2.53125 21.6716C1.19153 21.6716 0.0948995 20.6694 0.00583971 19.401L0 19.2341V4.60417C0 3.31406 1.04081 2.25805 2.35794 2.17229L2.53125 2.16667L4.51512 2.16608C4.65358 0.947888 5.72558 0 7.02748 0H10.9725C12.2744 0 13.3464 0.947888 13.4849 2.16608L15.4688 2.16667C16.8085 2.16667 17.9051 3.16893 17.9942 4.43728L18 4.60417V10.5671C18 11.0158 17.6222 11.3796 17.1562 11.3796C16.7291 11.3796 16.3761 11.0739 16.3202 10.6774L16.3125 10.5671V4.60417C16.3125 4.19283 15.9951 3.85288 15.5832 3.79908L15.4688 3.79167L13.0706 3.79149C12.6167 4.44069 11.8464 4.86775 10.9725 4.86775ZM14.625 12.9973H15.75C18.2353 12.9973 20.25 14.9374 20.25 17.3307C20.25 19.6514 18.3555 21.546 15.9793 21.6587L15.7552 21.664L14.6302 21.669C14.0089 21.6717 13.5029 21.1889 13.5 20.5906C13.4974 20.035 13.9295 19.5752 14.4887 19.5102L14.6198 19.5023L15.75 19.4973C16.9926 19.4973 18 18.5273 18 17.3307C18 16.1884 17.0821 15.2526 15.9179 15.1699L15.75 15.164H14.625C14.0037 15.164 13.5 14.679 13.5 14.0807C13.5 13.5251 13.9343 13.0672 14.4938 13.0046L14.625 12.9973ZM9.5625 13.0023H10.6875C11.3088 13.0023 11.8125 13.4873 11.8125 14.0856C11.8125 14.6412 11.3782 15.0991 10.8187 15.1617L10.6875 15.169H9.5625C8.31986 15.169 7.3125 16.139 7.3125 17.3356C7.3125 18.4779 8.23036 19.4136 9.39458 19.4964L9.5625 19.5023H10.6875C11.3088 19.5023 11.8125 19.9873 11.8125 20.5856C11.8125 21.1412 11.3782 21.5991 10.8187 21.6617L10.6875 21.669H9.5625C7.07722 21.669 5.0625 19.7289 5.0625 17.3356C5.0625 15.0149 6.95696 13.1203 9.3379 13.0076L9.5625 13.0023ZM9.56088 16.2498H15.75C16.3713 16.2498 16.875 16.7348 16.875 17.3331C16.875 17.8887 16.4407 18.3466 15.8812 18.4092L15.75 18.4165H9.56088C8.93956 18.4165 8.43588 17.9314 8.43588 17.3331C8.43588 16.7776 8.87018 16.3197 9.42968 16.2571L9.56088 16.2498ZM10.9725 1.625H7.02748C6.56357 1.625 6.1875 1.98715 6.1875 2.43387C6.1875 2.8806 6.56357 3.24275 7.02748 3.24275H10.9725C11.4364 3.24275 11.8125 2.8806 11.8125 2.43387C11.8125 1.98715 11.4364 1.625 10.9725 1.625Z" fill="white"/>
</svg>
